<svg width="800" height="592" viewBox="0 0 800 592" fill="none" xmlns="http://www.w3.org/2000/svg">
<g clip-path="url(#clip0_2_17)">
<path d="M200.766 541.105C229.862 572.815 271.38 591.123 314.369 591.123H668.907C741.155 591.123 800 532.278 800 460.03V131.972C800 59.7236 741.155 0.879028 668.907 0.879028H314.369C271.216 0.879028 229.862 19.0227 200.766 50.8969L18.0211 249.824C-6.00705 276.141 -6.00705 315.697 18.0211 342.014L200.766 541.105ZM47.6069 276.958L230.352 77.8673C251.928 54.3295 282.658 40.926 314.532 40.926H669.071C719.252 40.926 760.116 81.7903 760.116 131.972V459.867C760.116 510.048 719.252 550.912 669.071 550.912H314.369C282.495 550.912 251.765 537.509 230.188 513.971L47.6069 314.88C37.636 304.092 37.636 287.746 47.6069 276.958Z" fill="black"/>
<path d="M368.473 402.33C372.396 406.253 377.463 408.214 382.694 408.214C387.925 408.214 392.992 406.253 396.915 402.33L475.047 324.197L553.18 402.33C557.103 406.253 562.17 408.214 567.401 408.214C572.631 408.214 577.698 406.253 581.621 402.33C589.467 394.484 589.467 381.898 581.621 374.052L503.325 295.919L581.458 217.787C589.304 209.941 589.304 197.354 581.458 189.509C573.612 181.663 561.026 181.663 553.18 189.509L475.047 267.641L396.915 189.509C389.069 181.663 376.483 181.663 368.637 189.509C360.791 197.354 360.791 209.941 368.637 217.787L446.769 295.919L368.637 374.052C360.791 381.898 360.791 394.482 368.473 402.33Z" fill="black"/>
</g>
<defs>
<clipPath id="clip0_2_17">
<rect width="800" height="592" fill="white"/>
</clipPath>
</defs>
</svg>
